<svg xmlns="http://www.w3.org/2000/svg" version="1.1" xmlns:xlink="http://www.w3.org/1999/xlink" xmlns:svgjs="http://svgjs.dev/svgjs" width="1500" height="1500" viewBox="0 0 1500 1500"><g transform="matrix(1,0,0,1,-0.7499999999998863,-0.7499999999998863)"><svg viewBox="0 0 280 280" data-background-color="#1f2937" preserveAspectRatio="xMidYMid meet" height="1500" width="1500" xmlns="http://www.w3.org/2000/svg" xmlns:xlink="http://www.w3.org/1999/xlink"><g id="tight-bounds" transform="matrix(1,0,0,1,0.13999999999998636,0.13999999999998636)"><svg viewBox="0 0 279.72 279.72" height="279.72" width="279.72"><g><svg viewBox="0 0 279.72 279.72" height="279.72" width="279.72"><g><svg viewBox="0 0 279.72 279.72" height="279.72" width="279.72"><g id="textblocktransform"><svg viewBox="0 0 279.72 279.72" height="279.72" width="279.72" id="textblock"><g><svg viewBox="0 0 279.72 279.72" height="279.72" width="279.72"><g transform="matrix(1,0,0,1,73.92936372216631,73.92936372216631)"><svg viewBox="0 0 131.8612725556674 131.8612725556674" height="131.8612725556674" width="131.8612725556674"><g id="icon-0"><circle r="66" cx="65.9306362778337" cy="65.9306362778337" fill="#000000" data-fill-palette-color="accent"></circle></g></svg></g><g id="text-0"><path d="M28.763 102.246l-1.597 4.977-27.083-8.689 4.2-13.092 3.541 1.745-2.426 7.563 8.279 2.656 2.112-6.584 3.718 1.193-2.112 6.584z" fill="#ffffff" data-fill-palette-color="primary"></path><path d="M46.806 34.882c0.45-0.442 0.918-0.768 1.404-0.979v0l2.816 4.047c-0.487 0.288-0.897 0.595-1.231 0.923v0c-0.745 0.731-1.018 1.63-0.817 2.696 0.205 1.071 0.816 2.357 1.833 3.857v0l8.389 8.552-3.616 3.546-15.246-15.542 3.143-3.083 2.911 2.444c-1.292-2.769-1.154-4.922 0.414-6.461z" fill="#ffffff" data-fill-palette-color="primary"></path><path d="M113.136 12.935c0.068 0.234 0.225 0.916 0.47 2.045v0l-10.786 3.152c0.735 2.13 1.551 3.53 2.446 4.201 0.893 0.664 1.932 0.823 3.117 0.477v0c0.82-0.24 1.519-0.592 2.096-1.057 0.575-0.472 1.159-1.123 1.749-1.953v0l2.818 2.175c-1.317 2.334-3.267 3.879-5.85 4.634v0c-2.74 0.801-5.119 0.465-7.138-1.008-2.011-1.468-3.52-3.926-4.528-7.375v0c-1.01-3.455-1.11-6.385-0.302-8.79 0.813-2.413 2.496-3.992 5.047-4.737v0c2.453-0.717 4.623-0.387 6.508 0.99 1.892 1.375 3.343 3.791 4.353 7.246zM108.055 13.169l-0.079-0.273c-0.578-1.978-1.237-3.35-1.977-4.116-0.741-0.772-1.639-1.004-2.693-0.696v0c-0.97 0.283-1.582 0.943-1.837 1.978-0.257 1.029-0.115 2.664 0.427 4.907v0z" fill="#ffffff" data-fill-palette-color="primary"></path><path d="M175.441 21.645c-0.162 0.693-0.189 1.23-0.083 1.609 0.114 0.375 0.358 0.72 0.729 1.037v0l-1.767 3.054c-1.064-0.394-1.87-0.892-2.419-1.493-0.547-0.608-0.873-1.419-0.978-2.432v0c-1.702 1.747-3.663 2.362-5.881 1.844v0c-1.763-0.411-3.027-1.333-3.793-2.764-0.764-1.438-0.916-3.145-0.455-5.119v0c0.536-2.298 1.661-3.88 3.373-4.747 1.708-0.875 3.925-0.995 6.652-0.359v0l1.644 0.384 0.344-1.476c0.313-1.34 0.299-2.339-0.042-2.996-0.334-0.656-1.023-1.105-2.066-1.349v0c-1.261-0.294-2.907-0.309-4.939-0.046v0l-0.371-3.469c1.182-0.232 2.377-0.343 3.587-0.333 1.207 0.017 2.332 0.147 3.375 0.391v0c4.648 1.084 6.423 3.977 5.327 8.677v0zM167.203 21.999c1.281 0.299 2.46-0.355 3.539-1.963v0l1.037-4.446-1.159-0.27c-1.367-0.319-2.435-0.244-3.205 0.223-0.77 0.468-1.305 1.342-1.604 2.622v0c-0.256 1.096-0.261 1.968-0.016 2.618 0.239 0.647 0.708 1.053 1.408 1.216z" fill="#ffffff" data-fill-palette-color="primary"></path><path d="M234.89 25.968l4.096 3.026-20.935 22.912-3.739-3.416zM237.203 39.914l3.641 3.327-10.745 3.227-3.573 13.182-4.009-3.663 3.709-12.728z" fill="#ffffff" data-fill-palette-color="primary"></path><path d="M272.056 95.008c0.823 2.441 0.714 4.778-0.329 7.012v0l-3.228-0.95c0.276-0.901 0.432-1.72 0.47-2.456 0.042-0.744-0.05-1.453-0.277-2.127v0c-0.253-0.752-0.655-1.274-1.205-1.569-0.55-0.294-1.175-0.323-1.875-0.086v0c-0.7 0.236-1.184 0.668-1.453 1.294-0.268 0.627-0.442 1.766-0.522 3.417v0c-0.096 2.028-0.48 3.635-1.153 4.821-0.675 1.179-1.819 2.041-3.432 2.585v0c-1.998 0.674-3.814 0.506-5.449-0.502-1.631-1.017-2.81-2.605-3.538-4.763v0c-0.474-1.407-0.657-2.787-0.548-4.14 0.109-1.353 0.47-2.627 1.083-3.821v0l3.362 1.474c-0.78 1.887-0.916 3.586-0.406 5.095v0c0.288 0.854 0.74 1.453 1.356 1.796 0.623 0.341 1.339 0.375 2.149 0.102v0c0.597-0.201 1.051-0.469 1.361-0.802 0.301-0.338 0.528-0.822 0.679-1.453 0.152-0.631 0.247-1.528 0.284-2.692v0c0.1-2.037 0.487-3.595 1.16-4.674 0.678-1.087 1.746-1.877 3.204-2.368v0c1.741-0.587 3.386-0.451 4.935 0.407 1.547 0.852 2.671 2.319 3.373 4.4z" fill="#ffffff" data-fill-palette-color="primary"></path><path d="M0 139.534c0-6.548 5.308-11.856 11.856-11.856 6.548 0 11.856 5.308 11.855 11.856 0 6.548-5.308 11.856-11.855 11.856-6.548 0-11.856-5.308-11.856-11.856z" fill="#ffffff" data-fill-palette-color="primary"></path><path d="M256.009 139.534c0-6.548 5.308-11.856 11.855-11.856 6.548 0 11.856 5.308 11.856 11.856 0 6.548-5.308 11.856-11.856 11.856-6.548 0-11.856-5.308-11.855-11.856z" fill="#ffffff" data-fill-palette-color="primary"></path></g><g id="text-1"><path d="M28.371 183.322l-16.468 5.157-1.046-3.339 2.029-0.837c-1.016-0.25-1.836-0.633-2.458-1.148-0.628-0.507-1.075-1.187-1.343-2.042v0c-0.377-1.203-0.25-2.284 0.381-3.241 0.635-0.966 1.639-1.664 3.01-2.093v0l12.325-3.859 1.2 3.833-12.111 3.792c-1.287 0.403-1.794 1.041-1.521 1.915v0c0.156 0.498 0.49 0.884 1.002 1.157 0.505 0.275 1.162 0.467 1.97 0.576v0l11.83-3.704z" fill="#ffffff" data-fill-palette-color="secondary"></path><path d="M33.943 194.226c0.526 1.123 0.54 2.199 0.04 3.226-0.505 1.03-1.436 1.863-2.793 2.499v0l-11.584 5.428-1.704-3.637 11.169-5.234c0.749-0.351 1.239-0.704 1.469-1.059 0.228-0.361 0.249-0.738 0.066-1.131v0c-0.388-0.829-1.551-1.28-3.487-1.353v0l-10.93 5.121-1.705-3.637 15.627-7.322 1.48 3.158-1.91 1.221c1.079 0.146 1.962 0.425 2.649 0.836 0.678 0.408 1.216 1.036 1.613 1.884z" fill="#ffffff" data-fill-palette-color="secondary"></path><path d="M24.287 214.089c-0.614-0.999-0.791-1.981-0.531-2.943 0.266-0.967 0.918-1.769 1.958-2.408v0l17.599-10.81 2.458 3.205-17.816 10.942c-0.243 0.149-0.405 0.325-0.488 0.527-0.077 0.198-0.046 0.41 0.092 0.635v0c0.078 0.127 0.172 0.241 0.281 0.341 0.109 0.1 0.174 0.167 0.196 0.202v0l-1.921 2.099c-0.739-0.413-1.348-1.01-1.828-1.79z" fill="#ffffff" data-fill-palette-color="secondary"></path><path d="M43.321 223.856c-0.156 0.119-0.618 0.43-1.386 0.933v0l-5.414-7.073c-1.362 1.154-2.163 2.155-2.401 3.003-0.24 0.858-0.063 1.675 0.53 2.45v0c0.412 0.538 0.874 0.953 1.387 1.243 0.513 0.291 1.16 0.534 1.942 0.729v0l-0.803 2.715c-2.101-0.313-3.798-1.315-5.092-3.005v0c-1.376-1.798-1.809-3.652-1.3-5.562 0.51-1.91 1.896-3.73 4.157-5.461v0c2.266-1.735 4.404-2.645 6.413-2.731 2.014-0.09 3.662 0.702 4.943 2.376v0c1.232 1.61 1.611 3.309 1.136 5.098-0.48 1.793-1.851 3.555-4.112 5.285zM41.693 220.173l0.177-0.136c1.297-0.993 2.125-1.874 2.484-2.644 0.353-0.765 0.266-1.493-0.261-2.182v0c-0.49-0.641-1.153-0.91-1.989-0.808-0.837 0.111-2.006 0.686-3.508 1.724v0z" fill="#ffffff" data-fill-palette-color="secondary"></path><path d="M50.686 238.253c-0.403 0.402-0.646 0.754-0.728 1.056-0.087 0.297-0.068 0.633 0.057 1.007v0l-2.468 1.313c-0.555-0.71-0.89-1.387-1.004-2.029-0.114-0.633 0.007-1.313 0.362-2.042v0c-1.875 0.463-3.452 0.053-4.73-1.229v0c-1.01-1.013-1.474-2.164-1.391-3.453 0.083-1.28 0.696-2.489 1.839-3.629v0c1.325-1.321 2.745-1.914 4.259-1.778 1.519 0.131 3.062 0.982 4.627 2.552v0l0.941 0.943 0.85-0.847c0.773-0.771 1.184-1.449 1.232-2.034 0.044-0.58-0.233-1.17-0.832-1.769v0c-0.723-0.725-1.82-1.426-3.29-2.104v0l1.204-2.494c0.886 0.342 1.734 0.769 2.544 1.283 0.805 0.519 1.506 1.078 2.104 1.678v0c2.671 2.678 2.654 5.368-0.053 8.068v0zM44.988 235.046c0.737 0.739 1.806 0.793 3.207 0.162v0l2.563-2.556-0.668-0.67c-0.78-0.782-1.528-1.181-2.242-1.196-0.714-0.006-1.441 0.36-2.18 1.097v0c-0.634 0.632-1.003 1.216-1.109 1.753-0.111 0.542 0.032 1.012 0.429 1.41z" fill="#ffffff" data-fill-palette-color="secondary"></path><path d="M67.331 234.393c1.61 1.254 2.559 2.849 2.847 4.784v0l-2.555 0.781c-0.21-0.723-0.463-1.336-0.758-1.841-0.294-0.504-0.666-0.932-1.115-1.282v0c-0.497-0.388-0.992-0.558-1.484-0.511-0.492 0.047-0.917 0.3-1.275 0.76v0c-0.363 0.465-0.494 0.965-0.394 1.498 0.095 0.529 0.477 1.356 1.148 2.48v0c0.819 1.386 1.264 2.618 1.336 3.696 0.071 1.078-0.306 2.146-1.131 3.206v0c-1.033 1.326-2.309 2.009-3.826 2.047-1.526 0.04-3.001-0.495-4.423-1.603v0c-0.925-0.721-1.649-1.551-2.171-2.492-0.518-0.945-0.835-1.944-0.952-2.997v0l2.865-0.501c0.308 1.59 0.96 2.772 1.955 3.547v0c0.567 0.442 1.13 0.64 1.69 0.595 0.56-0.045 1.048-0.335 1.464-0.87v0c0.304-0.39 0.485-0.765 0.541-1.125 0.053-0.354-0.007-0.774-0.178-1.261-0.176-0.481-0.506-1.116-0.99-1.906v0c-0.829-1.385-1.253-2.583-1.272-3.595-0.025-1.016 0.336-2.003 1.082-2.96v0c0.896-1.15 2.042-1.782 3.438-1.898 1.397-0.106 2.783 0.377 4.158 1.448z" fill="#ffffff" data-fill-palette-color="secondary"></path><path d="M81.296 243.736c1.059 0.646 1.664 1.535 1.815 2.668 0.147 1.138-0.169 2.347-0.949 3.625v0l-6.663 10.921-3.429-2.092 6.425-10.53c0.431-0.706 0.644-1.271 0.64-1.694-0.01-0.427-0.2-0.753-0.57-0.979v0c-0.781-0.477-1.999-0.211-3.654 0.796v0l-6.287 10.304-3.429-2.092 12.574-20.608 3.651 1.727-4.878 7.995c0.904-0.441 1.736-0.672 2.496-0.693 0.765-0.018 1.518 0.2 2.258 0.652z" fill="#ffffff" data-fill-palette-color="secondary"></path><path d="M97.066 266.598l0.45 2.815c-1.293 0.423-2.613 0.383-3.96-0.118v0c-1.404-0.523-2.321-1.324-2.752-2.403-0.439-1.075-0.399-2.308 0.119-3.699v0l3.506-9.416-1.897-0.706 1.011-2.716 1.897 0.706 1.334-3.583 3.935 0.944-1.505 4.041 3.059 1.139-1.383 2.577-2.687-1-3.506 9.415c-0.364 0.978-0.13 1.623 0.702 1.933v0c0.267 0.099 0.515 0.152 0.744 0.157 0.229 0.006 0.54-0.023 0.933-0.086z" fill="#ffffff" data-fill-palette-color="secondary"></path><path d="M113.512 256.211c1.2 0.314 2.035 0.992 2.506 2.033 0.468 1.048 0.513 2.296 0.133 3.746v0l-3.241 12.375-3.886-1.017 3.125-11.933c0.21-0.8 0.252-1.402 0.126-1.806-0.132-0.406-0.408-0.664-0.827-0.774v0c-0.885-0.232-1.976 0.373-3.271 1.813v0l-3.058 11.677-3.886-1.018 6.116-23.353 3.994 0.604-2.373 9.06c0.739-0.682 1.47-1.143 2.191-1.381 0.728-0.237 1.511-0.245 2.351-0.026z" fill="#ffffff" data-fill-palette-color="secondary"></path><path d="M132.565 267.773c-0.023 0.195-0.121 0.743-0.296 1.644v0l-8.847-1.039c-0.12 1.781 0.041 3.053 0.484 3.815 0.449 0.769 1.158 1.211 2.127 1.325v0c0.673 0.079 1.293 0.036 1.859-0.13 0.566-0.166 1.191-0.461 1.875-0.886v0l1.389 2.467c-1.687 1.29-3.588 1.811-5.702 1.562v0c-2.249-0.264-3.881-1.244-4.897-2.94-1.016-1.696-1.358-3.958-1.025-6.786v0c0.333-2.835 1.168-5.003 2.504-6.504 1.338-1.508 3.053-2.14 5.148-1.894v0c2.013 0.236 3.497 1.148 4.45 2.734 0.953 1.593 1.263 3.804 0.931 6.632zM128.787 266.377l0.026-0.222c0.191-1.623 0.135-2.831-0.168-3.624-0.304-0.786-0.886-1.23-1.748-1.332v0c-0.801-0.094-1.456 0.194-1.965 0.865-0.503 0.678-0.904 1.918-1.205 3.718v0z" fill="#ffffff" data-fill-palette-color="secondary"></path><path d="M150.399 254.81c-0.602 0.042-1.04 0.236-1.315 0.581-0.268 0.345-0.379 0.856-0.331 1.532v0l0.161 2.313 3.287-0.229-0.255 2.923-2.83 0.197 0.999 14.324-4.007 0.28-0.999-14.324-2.151 0.15-0.202-2.891 2.151-0.15-0.152-2.181c-0.109-1.562 0.26-2.842 1.108-3.839 0.848-0.997 2.117-1.554 3.808-1.673v0c1.326-0.092 2.63 0.143 3.913 0.706v0l-0.924 2.684c-0.79-0.319-1.544-0.453-2.261-0.403z" fill="#ffffff" data-fill-palette-color="secondary"></path><path d="M162.41 257.147c0.489-0.073 0.94-0.065 1.35 0.025v0l-0.073 3.907c-0.445-0.043-0.852-0.037-1.221 0.019v0c-0.818 0.122-1.408 0.574-1.771 1.355-0.37 0.782-0.578 1.889-0.624 3.322v0l1.405 9.393-3.972 0.594-2.554-17.067 3.45-0.516 0.735 2.923c0.46-2.379 1.551-3.697 3.275-3.955z" fill="#ffffff" data-fill-palette-color="secondary"></path><path d="M180.221 261.435c0.051 0.19 0.162 0.736 0.333 1.638v0l-8.604 2.305c0.547 1.699 1.166 2.821 1.859 3.365 0.702 0.549 1.524 0.697 2.467 0.445v0c0.655-0.175 1.214-0.445 1.679-0.808 0.464-0.363 0.936-0.868 1.415-1.516v0l2.203 1.779c-1.091 1.822-2.665 3.009-4.721 3.559v0c-2.187 0.586-4.066 0.279-5.637-0.921-1.571-1.2-2.725-3.176-3.461-5.927v0c-0.739-2.757-0.764-5.08-0.078-6.969 0.685-1.896 2.046-3.117 4.083-3.663v0c1.958-0.525 3.673-0.226 5.145 0.896 1.474 1.128 2.58 3.067 3.317 5.817zM176.195 261.535l-0.058-0.216c-0.423-1.578-0.921-2.68-1.496-3.305-0.573-0.619-1.278-0.816-2.117-0.591v0c-0.779 0.209-1.281 0.719-1.506 1.53-0.217 0.816-0.131 2.116 0.256 3.9v0z" fill="#ffffff" data-fill-palette-color="secondary"></path><path d="M196.339 260.12c0.218 0.526 0.451 0.885 0.698 1.075 0.242 0.193 0.559 0.304 0.952 0.332v0l0.272 2.783c-0.868 0.242-1.621 0.294-2.259 0.154-0.629-0.136-1.212-0.507-1.749-1.114v0c-0.288 1.91-1.268 3.211-2.94 3.903v0c-1.322 0.547-2.562 0.537-3.722-0.032-1.151-0.565-2.036-1.593-2.653-3.083v0c-0.716-1.729-0.722-3.267-0.019-4.616 0.701-1.354 2.076-2.456 4.124-3.304v0l1.231-0.509-0.459-1.109c-0.418-1.008-0.887-1.647-1.41-1.915-0.519-0.262-1.171-0.231-1.953 0.094v0c-0.946 0.392-2.012 1.138-3.2 2.239v0l-1.846-2.064c0.654-0.689 1.373-1.31 2.157-1.862 0.787-0.546 1.571-0.981 2.354-1.306v0c3.495-1.448 5.974-0.405 7.437 3.128v0zM191.2 264.163c0.965-0.4 1.422-1.367 1.374-2.902v0l-1.386-3.345-0.873 0.362c-1.021 0.423-1.675 0.961-1.962 1.616-0.278 0.658-0.217 1.469 0.183 2.434v0c0.342 0.827 0.741 1.392 1.197 1.695 0.458 0.309 0.947 0.356 1.467 0.14z" fill="#ffffff" data-fill-palette-color="secondary"></path><path d="M191.695 240.038l3.276-2.361 12.249 21.332-3.484 2zM202.78 241.659l3.396-1.95-0.162 8.888 9.098 5.88-3.739 2.147-8.706-5.871z" fill="#ffffff" data-fill-palette-color="secondary"></path><path d="M214.471 233.487l3.124-2.525 10.848 13.421-3.124 2.525zM210.6 225.528c0.559-0.452 1.155-0.637 1.787-0.555 0.634 0.072 1.176 0.387 1.628 0.946v0c0.439 0.543 0.627 1.132 0.565 1.766-0.053 0.636-0.359 1.179-0.918 1.631v0c-0.559 0.452-1.157 0.639-1.795 0.562-0.634-0.072-1.17-0.379-1.608-0.922v0c-0.452-0.559-0.646-1.156-0.584-1.791 0.058-0.64 0.367-1.186 0.925-1.637z" fill="#ffffff" data-fill-palette-color="secondary"></path><path d="M226.26 221.924c0.881-0.874 1.889-1.248 3.024-1.123 1.14 0.129 2.238 0.726 3.294 1.789v0l9.009 9.082-2.852 2.829-8.687-8.757c-0.582-0.587-1.08-0.93-1.491-1.027-0.417-0.093-0.779 0.014-1.087 0.319v0c-0.65 0.645-0.684 1.891-0.102 3.738v0l8.501 8.57-2.852 2.829-12.153-12.252 2.476-2.456 1.792 1.388c-0.226-1.065-0.26-1.99-0.103-2.776 0.157-0.776 0.567-1.493 1.231-2.153z" fill="#ffffff" data-fill-palette-color="secondary"></path><path d="M243.186 200.142l11.935 13.353c1.429 1.626 2.296 3.296 2.603 5.009 0.301 1.71-0.048 3.498-1.046 5.366v0l-2.62-1.181c0.517-1.3 0.707-2.405 0.57-3.317-0.137-0.911-0.644-1.892-1.519-2.941v0l-0.83 1.256-16.809-5.861 2.247-3.402 13.754 5.634-10.482-10.59z" fill="#ffffff" data-fill-palette-color="secondary"></path><path d="M246.638 192.261c0.97-1.948 2.404-3.123 4.301-3.527 1.903-0.4 4.199 0.069 6.888 1.409v0c2.567 1.279 4.302 2.821 5.205 4.626 0.894 1.809 0.861 3.678-0.101 5.608v0c-0.961 1.93-2.419 3.086-4.374 3.467-1.952 0.391-4.242-0.068-6.869-1.377v0c-2.609-1.3-4.343-2.845-5.201-4.635-0.861-1.784-0.81-3.642 0.151-5.571zM249.35 193.612c-0.417 0.837-0.31 1.656 0.322 2.455 0.638 0.802 1.931 1.689 3.879 2.659v0c1.966 0.979 3.459 1.48 4.477 1.503 1.025 0.026 1.746-0.38 2.163-1.217v0c0.417-0.837 0.307-1.657-0.331-2.46-0.632-0.799-1.931-1.689-3.897-2.668v0c-1.966-0.979-3.455-1.479-4.468-1.499-1.013-0.02-1.728 0.389-2.145 1.227z" fill="#ffffff" data-fill-palette-color="secondary"></path><path d="M255.123 171.826l16.316 5.619-1.139 3.308-2.13-0.529c0.669 0.804 1.102 1.599 1.298 2.383 0.204 0.78 0.161 1.593-0.131 2.439v0c-0.411 1.192-1.154 1.987-2.229 2.383-1.085 0.401-2.306 0.367-3.666-0.1v0l-12.21-4.206 1.308-3.798 11.999 4.133c1.276 0.439 2.062 0.226 2.36-0.639v0c0.17-0.494 0.13-1.002-0.119-1.526-0.244-0.521-0.658-1.066-1.245-1.633v0l-11.72-4.036z" fill="#ffffff" data-fill-palette-color="secondary"></path></g></svg></g></svg></g></svg></g><g></g></svg></g><defs></defs></svg><rect width="279.72" height="279.72" fill="none" stroke="none" visibility="hidden"></rect></g></svg></g></svg>